HIERARCHY
ROOT ui
{
	 OFFSET 0 0 0
	 CHANNELS 3 XPosition YPosition Z Position
	 EndSite
	 {
	 OFFSET 0 -1 0
	 }
}
ROOT li
{
	 OFFSET 0 0 0
	 CHANNELS 3 XPosition YPosition Z Position
	 EndSite
	 {
	 OFFSET 0 -1 0
	 }
}
ROOT ul
{
	 OFFSET 0 0 0
	 CHANNELS 3 XPosition YPosition Z Position
	 EndSite
	 {
	 OFFSET 0 -1 0
	 }
}
ROOT ll
{
	 OFFSET 0 0 0
	 CHANNELS 3 XPosition YPosition Z Position
	 EndSite
	 {
	 OFFSET 0 -1 0
	 }
}
ROOT tt
{
	 OFFSET 0 0 0
	 CHANNELS 3 XPosition YPosition Z Position
	 EndSite
	 {
	 OFFSET 0 -1 0
	 }
}
ROOT tb
{
	 OFFSET 0 0 0
	 CHANNELS 3 XPosition YPosition Z Position
	 EndSite
	 {
	 OFFSET 0 -1 0
	 }
}
ROOT td
{
	 OFFSET 0 0 0
	 CHANNELS 3 XPosition YPosition Z Position
	 EndSite
	 {
	 OFFSET 0 -1 0
	 }
}
ROOT v
{
	 OFFSET 0 0 0
	 CHANNELS 3 XPosition YPosition Z Position
	 EndSite
	 {
	 OFFSET 0 -1 0
	 }
}
ROOT bn
{
	 OFFSET 0 0 0
	 CHANNELS 3 XPosition YPosition Z Position
	 EndSite
	 {
	 OFFSET 0 -1 0
	 }
}
MOTION
Frames: 21
Frame Time: 0.002
-0.0012415109872817994	-0.001433714985847473	0		0.54524658203125	-2.393738037109375	0		-0.8748289184570313	0.18433775329589844	0		-0.6555383911132813	-2.49044091796875	0		1.5216483154296876	-0.7962522583007813	0		3.2704599609375	-0.1817782897949219	0		4.58678857421875	-0.03541530609130859	0		5.61880615234375	0.1120427017211914	0		-0.07110136413574218	5.9562861328125	0		
0.04785948944091797	-0.0020872650146484375	0		0.5123404541015625	-2.391761474609375	0		-0.8756934204101563	0.18808102416992187	0		-0.7334053955078125	-2.483102783203125	0		1.51674267578125	-0.7965029907226563	0		3.289497802734375	-0.1902332763671875	0		4.5969384765625	-0.02981263732910156	0		5.6179638671875	0.11871772766113281	0		-0.07593621063232422	5.95605224609375	0		
0.047068645477294925	6.400690078735351E-4	0		0.5115394897460938	-2.3870390625	0		-0.8754744873046875	0.19181048583984375	0		-0.6632871704101563	-2.488918212890625	0		1.5149432373046876	-0.79378369140625	0		3.266853271484375	-0.1683704833984375	0		4.58719580078125	-0.02106231689453125	0		5.62315087890625	0.11833870697021484	0		-0.0656012420654297	5.96669482421875	0		
0.0494566764831543	0.007342554092407226	0		0.48982452392578124	-2.39015478515625	0		-0.8801386108398438	0.19157763671875	0		-0.6530042114257812	-2.49227001953125	0		1.5102684326171876	-0.79404248046875	0		3.26201416015625	-0.19064767456054688	0		4.58253125	-0.02135235595703125	0		5.608486328125	0.11811300659179688	0		-0.08528768157958984	5.9555703125	0		
0.04096839141845703	0.0041339840888977054	0		0.5303397216796875	-2.389749755859375	0		-0.8896326904296875	0.1873870391845703	0		-0.6724727172851562	-2.48938525390625	0		1.505794677734375	-0.7942982788085937	0		3.273647705078125	-0.1780475616455078	0		4.5870048828125	-0.029709320068359375	0		5.61996728515625	0.1106881103515625	0		-0.0896877899169922	5.95533203125	0		
0.03371512985229492	-7.565999776124955E-5	0		0.46810882568359374	-2.3875361328125	0		-0.8978839111328125	0.18319534301757812	0		-0.6866593627929688	-2.481532958984375	0		1.49854052734375	-0.79752392578125	0		3.24243994140625	-0.17610546875	0		4.5687841796875	-0.029880691528320312	0		5.5957470703125	0.11055007934570313	0		-0.09384504699707032	5.95510009765625	0		
0.02574418067932129	-0.0032681779861450195	0		0.5180790405273438	-2.39518603515625	0		-0.8977984619140625	0.18695022583007812	0		-0.6827122192382813	-2.491811279296875	0		1.494584228515625	-0.7977636108398437	0		3.249544677734375	-0.16945018005371093	0		4.569900390625	-0.022190765380859376	0		5.59180078125	0.1102660140991211	0		-0.09673604583740235	5.9538701171875	0		
0.029148649215698243	0.003464797019958496	0		0.4454524230957031	-2.388864013671875	0		-0.8964153442382813	0.19070880126953124	0		-0.7453557739257812	-2.487554443359375	0		1.493948974609375	-0.7950149536132812	0		3.275852783203125	-0.17493115234375	0		4.562236328125	-0.02441790008544922	0		5.6011982421875	0.11589263153076172	0		-0.06915918731689454	5.974416015625	0		
0.03386636734008789	0.0102038516998291	0		0.5191115112304687	-2.386669677734375	0		-0.895718994140625	0.194489013671875	0		-0.7566403198242188	-2.47768212890625	0		1.4966583251953125	-0.788275634765625	0		3.2525458984375	-0.17100694274902345	0		4.57690771484375	-0.023802627563476564	0		5.58887060546875	0.11670629119873047	0		-0.10359663391113282	5.95346240234375	0		
0.0197650146484375	-8.92087996006012E-4	0		0.45607278442382815	-2.38638671875	0		-0.9077949829101563	0.18638705444335937	0		-0.690778076171875	-2.49039697265625	0		1.487579833984375	-0.79542626953125	0		3.21049072265625	-0.17591726684570314	0		4.55483935546875	-0.030881500244140624	0		5.5818017578125	0.1094970932006836	0		-0.10754187774658203	5.9542890625	0		
0.02010336685180664	0.002917910099029541	0		0.5072979431152344	-2.3939814453125	0		-0.9104859619140625	0.18623054504394532	0		-0.768455810546875	-2.484967041015625	0		1.48185498046875	-0.79858447265625	0		3.254668701171875	-0.1924859161376953	0		4.5521474609375	-0.031093719482421876	0		5.57910986328125	0.1092718734741211	0		-0.11017178344726562	5.95412451171875	0		
0.010673587799072265	-0.00417736005783081	0		0.47692144775390627	-2.390917236328125	0		-0.9128589477539063	0.18609010314941407	0		-0.6958993530273437	-2.490698486328125	0		1.479471435546875	-0.7987508544921875	0		3.234292236328125	-0.19252996826171875	0		4.53983740234375	-0.02321281433105469	0		5.5816650390625	0.10002207183837891	0		-0.1114901351928711	5.95296728515625	0		
0.012630867958068847	-0.001343925952911377	0		0.46674212646484375	-2.401994140625	0		-0.9149230346679688	0.18596546936035158	0		-0.760991455078125	-2.49032958984375	0		1.4804197998046875	-0.7959259643554687	0		3.232397216796875	-0.17070173645019532	0		4.55277197265625	-0.02351439666748047	0		5.57872607421875	0.11583206939697266	0		-0.11348963165283203	5.95283349609375	0		
0.017915685653686522	0.005480968952178955	0		0.4770619201660156	-2.387214111328125	0		-0.9116596069335937	0.18981704711914063	0		-0.6947533569335937	-2.4859765625	0		1.478640380859375	-0.796062744140625	0		3.230451416015625	-0.19285824584960937	0		4.5649951171875	-0.024795013427734373	0		5.58290185546875	0.10860043334960938	0		-0.11618250274658203	5.95372314453125	0		
0.009370326042175293	-0.0015680780410766602	0		0.47352679443359375	-2.389308349609375	0		-0.9181790771484375	0.18576339721679688	0		-0.774247802734375	-2.48245654296875	0		1.477140380859375	-0.79618505859375	0		3.25801318359375	-0.18623110961914063	0		4.558451171875	-0.031912696838378905	0		5.5714130859375	0.1085072250366211	0		-0.11660842895507813	5.95261279296875	0		
0.011171642303466798	0.002318411111831665	0		0.4962101745605469	-2.396593505859375	0		-0.8434093017578125	0.1850843048095703	0		-0.7025750122070312	-2.491113525390625	0		1.4728763427734375	-0.79926953125	0		3.21684521484375	-0.1780457763671875	0		4.55722216796875	-0.03205748748779297	0		5.59018359375	0.1081888427734375	0		-0.11875523376464844	5.9535322265625	0		
0.0031237709522247315	-0.004701448917388916	0		0.43922732543945314	-2.39123193359375	0		-0.9244287109375	0.18165403747558595	0		-0.7785585327148438	-2.48558544921875	0		1.4718731689453124	-0.7993643188476562	0		3.213961181640625	-0.1641481475830078	0		4.5422314453125	-0.032079368591308596	0		5.57324853515625	0.11516633605957032	0		-0.1176853485107422	5.95144287109375	0		
0.00939909839630127	0.0021808619499206544	0		0.45340634155273435	-2.392418701171875	0		-0.9111828002929687	0.18449357604980468	0		-0.7274136962890625	-2.49104931640625	0		1.4800582275390626	-0.802517578125	0		3.252034912109375	-0.18256285095214844	0		4.5465166015625	-0.024240402221679686	0		5.59232666015625	0.09687027740478515	0		-0.08622637939453125	5.9711279296875	0		
0.01779678726196289	0.001060433030128479	0		0.4547943115234375	-2.390489990234375	0		-0.9127027587890625	0.19346533203125	0		-0.764010009765625	-2.4868017578125	0		1.47955615234375	-0.789587646484375	0		3.2255263671875	-0.17145109558105467	0		4.54592431640625	-0.024350486755371093	0		5.57187744140625	0.11490107727050781	0		-0.11988627624511719	5.95234326171875	0		
0.008367432594299316	0.002095690965652466	0		0.49731231689453126	-2.391875244140625	0		-0.846203369140625	0.18490910339355468	0		-0.7034940185546875	-2.4883125	0		1.4730513916015624	-0.7965974731445312	0		3.214031005859375	-0.1784467010498047	0		4.55442431640625	-0.03252181243896484	0		5.5773857421875	0.10773563385009766	0		-0.12122859954833984	5.95331689453125	0		
-0.049967185974121094	-4.657059907913208E-4	0		0.4389808654785156	-2.3894443359375	0		-0.9225106811523438	0.18550439453125	0		-0.70586865234375	-2.49131005859375	0		1.4697027587890625	-0.799620361328125	0		3.236651123046875	-0.18670364379882812	0		4.53505859375	-0.039461074829101564	0		5.5670751953125	0.10770554351806641	0		-0.12045777893066406	5.95228662109375	0		
